THE FIRM 2009 DVDrip x264 codec 

Format                           : AVI
Format/Info                      : Audio Video Interleave
File size                        : 561 MiB
Duration                         : 1h 26mn
Overall bit rate                 : 905 Kbps
Writing application              : MEncoder SVN-r29352(20090610-gcc4.3.3)
Writing library                  : MPlayer

Video
ID                               : 0
Format                           : AVC
Format/Info                      : Advanced Video Codec
Format profile                   : Baseline@L2.1
Format settings, CABAC           : No
Format settings, ReFrames        : 1 frame
Codec ID                         : avc1
Duration                         : 1h 26mn
Bit rate                         : 768 Kbps
Width                            : 640 pixels
Height                           : 360 pixels
Display aspect ratio             : 16:9
Frame rate                       : 25.000 fps
Resolution                       : 24 bits
Colorimetry                      : 4:2:0
Scan type                        : Progressive
Bits/(Pixel*Frame)               : 0.133
Stream size                      : 474 MiB (85%)
Writing library                  : x264 core 67 r1163+17 7d945df
Encoding settings                : cabac=0 / ref=1 / deblock=1:0:0 / analyse=0x1:0x111 / me=hex / subme=6 / psy_rd=1.0:0.0 / mixed_ref=0 / me_range=16 / chroma_me=1 / trellis=0 / 8x8dct=0 / cqm=0 / deadzone=21,11 / chroma_qp_offset=-2 / threads=3 / nr=0 / decimate=1 / mbaff=0 / bframes=0 / keyint=250 / keyint_min=25 / scenecut=40 / rc=abr / bitrate=768 / ratetol=1.0 / qcomp=0.60 / qpmin=10 / qpmax=51 / qpstep=4 / ip_ratio=1.40 / aq=1:1.00

Audio
ID                               : 1
Format                           : MPEG Audio
Format version                   : Version 1
Format profile                   : Layer 3
Codec ID                         : 55
Codec ID/Hint                    : MP3
Duration                         : 1h 26mn
Bit rate mode                    : Constant
Bit rate                         : 128 Kbps
Channel(s)                       : 2 channels
Sampling rate                    : 44.1 KHz
Resolution                       : 16 bits
Stream size                      : 79.3 MiB (14%)
Alignment                        : Aligned on interleaves
Interleave, duration             : 26 ms (0.65 video frame)
Interleave, preload duration     : 522 ms

Set in the 1980s, Dom is a teenager who finds himself drawn into the charismatic world of football 'casuals,influenced by the firm's top boy, Bex. Accepted by the gang for his fast mouth and sense of humor, Dom soon becomes one the boys. But as Bex and his gang clash with rival firms across the country and the violence spirals out of control, Dom realizes he wants out - until he learns it's not that easy to simply walk away
 
http://www.imdb.com/title/tt1313113/

PLEASE SEED AND ENJOY THANKS

screens
 
http://img704.imageshack.us/img704/3935/vlcsnap2010012820h22m10.png 
http://img704.imageshack.us/img704/702/vlcsnap2010012822h23m45.png 
http://img222.imageshack.us/img222/6554/vlcsnap2010012822h24m06.png 
http://img14.imageshack.us/img14/4524/vlcsnap2010012822h24m16.png

